<?xml version="1.0" standalone="no"?>
<!DOCTYPE svg PUBLIC "-//W3C//DTD SVG 20010904//EN"
 "http://www.w3.org/TR/2001/REC-SVG-20010904/DTD/svg10.dtd">
<svg version="1.0" xmlns="http://www.w3.org/2000/svg"
 width="520.000000pt" height="520.000000pt" viewBox="0 0 520.000000 520.000000"
 preserveAspectRatio="xMidYMid meet">

<g transform="translate(0.000000,520.000000) scale(0.100000,-0.100000)"
fill="#000000" stroke="none">
<path d="M2509 4431 c-32 -7 -200 -91 -289 -145 -56 -35 -68 -41 -210 -120
-74 -42 -146 -82 -160 -90 -14 -8 -77 -44 -140 -79 -116 -64 -220 -123 -252
-142 -9 -5 -97 -55 -195 -109 -98 -55 -195 -112 -215 -128 -56 -44 -103 -115
-127 -192 -21 -67 -21 -83 -21 -826 0 -716 1 -762 19 -819 34 -111 107 -199
203 -247 42 -22 102 -55 423 -237 246 -140 248 -141 464 -262 79 -44 164 -92
190 -107 137 -80 262 -144 306 -155 114 -30 204 -10 360 78 61 34 128 71 150
83 22 11 42 23 45 26 3 3 69 42 148 86 79 43 160 88 180 100 146 83 331 187
522 294 239 133 299 179 337 260 53 109 53 109 53 897 0 775 -1 792 -48 893
-38 82 -100 136 -251 219 -120 66 -139 74 -187 73 -80 -1 -149 -37 -236 -124
-48 -48 -91 -103 -123 -161 -28 -48 -59 -103 -70 -121 -79 -135 -146 -262
-160 -301 -26 -79 -30 -155 -10 -237 28 -119 85 -207 260 -398 127 -140 144
-163 156 -218 35 -150 -90 -302 -247 -302 -151 1 -254 118 -254 289 0 79 -12
120 -52 177 -51 71 -90 73 -166 9 -82 -69 -133 -179 -188 -408 -29 -121 -29
-127 -2 -174 19 -31 23 -52 23 -118 -1 -118 -42 -186 -154 -252 -65 -38 -173
-40 -245 -3 -71 36 -127 104 -150 180 -20 70 -17 118 14 186 23 53 93 130 124
138 26 6 39 34 86 180 43 134 60 213 60 283 0 83 -5 93 -47 93 -32 0 -97 -35
-135 -73 -7 -7 -32 -27 -55 -44 -49 -35 -79 -70 -117 -137 -89 -154 -216 -211
-342 -152 -121 56 -182 191 -140 309 28 79 85 131 176 163 53 18 110 46 162
77 212 126 312 202 316 240 5 38 -12 42 -124 29 -71 -8 -107 -18 -140 -37 -24
-14 -44 -30 -44 -36 0 -19 -84 -49 -138 -49 -100 0 -177 53 -212 147 -24 65
-25 77 -3 142 12 38 29 64 64 95 73 66 100 70 302 50 175 -17 272 -13 390 17
102 27 240 112 323 200 57 61 87 108 196 304 121 216 138 262 138 366 0 131
-29 163 -267 283 -62 32 -84 37 -155 41 -46 2 -99 1 -119 -4z"/>
</g>
</svg>
