<svg version="1.1" id="Layer_1" xmlns="http://www.w3.org/2000/svg" xmlns:xlink="http://www.w3.org/1999/xlink" x="0px" y="0px"
	 width="100%" viewBox="0 0 377 377" enable-background="new 0 0 377 377" xml:space="preserve">
	<path fill="#00FDC2" opacity="1.000000" stroke="none" 
	d="
M285.841003,137.072830 
	C295.637085,142.773575 304.346436,149.574387 308.717438,160.520111 
	C309.880646,163.432922 311.200439,166.536575 311.281921,169.583801 
	C311.619781,182.217697 312.261200,194.917633 311.354370,207.489685 
	C310.452972,219.985870 303.188385,229.461487 292.956940,236.413498 
	C273.970917,249.314072 254.864441,262.037598 235.783340,274.797791 
	C228.817825,279.455872 221.345490,279.876038 213.961853,276.249878 
	C206.338669,272.506012 202.225586,266.027252 201.902115,257.486664 
	C201.668915,251.329651 201.671249,245.149979 201.901306,238.992859 
	C202.150482,232.323792 204.826904,226.567749 210.385895,222.765503 
	C226.726669,211.588715 243.222275,200.638306 260.163940,189.181671 
	C268.017822,183.901413 275.682953,179.441422 282.573669,174.000702 
	C285.860718,171.405350 288.402252,167.238724 290.001709,163.268280 
	C293.002502,155.819229 289.832764,149.019348 286.332184,142.396957 
	C285.563202,140.942169 285.973694,138.863953 285.841003,137.072830 
z"/>
	<path fill="#00FDC2" opacity="1.000000" stroke="none" 
	d="
M98.696846,242.136581 
	C85.185791,234.626556 74.156143,224.643661 72.611816,208.468704 
	C71.416405,195.948334 71.718208,183.153519 72.731445,170.591782 
	C73.691116,158.694107 80.644020,149.544800 90.408173,142.876602 
	C109.625969,129.752274 128.945755,116.775284 148.321533,103.884941 
	C162.380768,94.531578 181.268097,104.125519 182.049561,120.991600 
	C182.342194,127.306862 182.288193,133.654129 182.050842,139.973969 
	C181.752518,147.917419 177.618179,153.625900 171.094208,157.961243 
	C155.446335,168.359665 139.893799,178.901550 123.776253,189.738159 
	C116.884071,194.250168 110.460136,198.323502 104.165062,202.587051 
	C91.566353,211.119934 89.373611,223.114517 98.004135,236.391357 
	C98.286362,238.529266 98.491600,240.332932 98.696846,242.136581 
z"/>
	<path fill="#01F9BF" opacity="1.000000" stroke="none" 
	d="
M208.461029,153.060349 
	C206.801163,149.704758 203.969101,146.435928 203.712982,142.976425 
	C203.080078,134.427444 202.454132,125.580032 203.955063,117.235626 
	C206.716293,101.884430 223.892776,95.460960 236.999756,104.047501 
	C240.607635,106.411079 244.158356,108.861893 247.676361,111.820160 
	C246.266052,113.800842 244.758408,115.117409 243.587845,116.685577 
	C233.514618,130.180405 223.502243,143.720642 213.471710,157.247345 
	C212.425400,156.543777 211.379074,155.840195 210.080826,154.728882 
	C209.682785,154.161453 209.511063,154.037170 209.313705,153.948303 
	C209.313705,153.948303 209.071564,153.924164 208.987335,153.676575 
	C208.789017,153.266266 208.641647,153.143372 208.461029,153.060349 
z"/>
	<path fill="#01F9BF" opacity="1.000000" stroke="none" 
	d="
M174.692062,225.035995 
	C179.323364,229.970230 181.341766,235.784958 180.932190,242.563217 
	C180.542984,249.004593 181.278778,255.639114 179.998413,261.876404 
	C176.969101,276.633545 160.316833,283.165375 147.517822,275.116486 
	C144.147720,272.997162 140.885040,270.707062 137.726807,268.066040 
	C142.449158,267.327667 145.284241,264.634918 147.746979,261.011719 
	C150.818588,256.492737 154.760010,252.516998 157.478104,247.816483 
	C162.035095,239.935791 170.189026,234.291565 171.912766,224.649063 
	C171.964188,224.361450 173.074509,224.263138 173.691132,224.076569 
	C173.691132,224.076569 173.935623,224.088577 174.041718,224.354446 
	C174.297302,224.800659 174.478729,224.939224 174.692062,225.035995 
z"/>
	<path fill="#0BDCAC" opacity="1.000000" stroke="none" 
	d="
M285.691040,136.780182 
	C285.973694,138.863953 285.563202,140.942169 286.332184,142.396957 
	C289.832764,149.019348 293.002502,155.819229 290.001709,163.268280 
	C288.402252,167.238724 285.860718,171.405350 282.573669,174.000702 
	C275.682953,179.441422 268.017822,183.901413 260.356689,188.901611 
	C255.444824,185.894775 250.846970,182.750427 246.360992,179.222961 
	C251.684387,171.805801 256.794067,164.693344 262.134155,157.758347 
	C268.288696,149.765640 274.646698,141.929657 280.916321,134.025604 
	C282.457916,134.846252 283.999481,135.666885 285.691040,136.780182 
z"/>
	<path fill="#08E7B3" opacity="1.000000" stroke="none" 
	d="
M280.780640,133.781372 
	C274.646698,141.929657 268.288696,149.765640 262.134155,157.758347 
	C256.794067,164.693344 251.684387,171.805801 246.141342,178.961151 
	C240.002396,175.245361 234.194977,171.408279 228.538742,167.302612 
	C230.230667,164.862961 231.722839,162.655426 233.320465,160.527084 
	C240.848801,150.497940 248.324051,140.426987 256.002991,130.514053 
	C258.302429,127.545662 261.199432,125.040154 263.822662,122.322586 
	C269.430084,126.060760 275.037506,129.798935 280.780640,133.781372 
z"/>
	<path fill="#04F2BA" opacity="1.000000" stroke="none" 
	d="
M263.583435,122.084702 
	C261.199432,125.040154 258.302429,127.545662 256.002991,130.514053 
	C248.324051,140.426987 240.848801,150.497940 233.320465,160.527084 
	C231.722839,162.655426 230.230667,164.862961 228.385254,167.004791 
	C223.354172,163.916901 218.627777,160.858261 213.686554,157.523468 
	C223.502243,143.720642 233.514618,130.180405 243.587845,116.685577 
	C244.758408,115.117409 246.266052,113.800842 247.845123,112.111542 
	C253.163284,115.185905 258.253723,118.516365 263.583435,122.084702 
z"/>
	<path fill="#04F2BA" opacity="1.000000" stroke="none" 
	d="
M173.567291,223.801086 
	C173.074509,224.263138 171.964188,224.361450 171.912766,224.649063 
	C170.189026,234.291565 162.035095,239.935791 157.478104,247.816483 
	C154.760010,252.516998 150.818588,256.492737 147.746979,261.011719 
	C145.284241,264.634918 142.449158,267.327667 137.554886,267.783325 
	C133.941406,265.811676 130.653641,263.693420 127.277939,260.987885 
	C130.615067,256.697357 134.327057,253.216263 137.403290,249.242950 
	C143.158661,241.809204 148.295151,233.888443 154.188843,226.572891 
	C157.233215,222.794037 159.511063,219.101822 159.292953,214.169128 
	C162.754181,216.388733 166.215408,218.608353 170.023788,221.214691 
	C170.541962,221.737427 170.713226,221.873138 170.884720,222.008560 
	C171.737625,222.514236 172.590546,223.019913 173.567291,223.801086 
z"/>
	<path fill="#06EDB7" opacity="1.000000" stroke="none" 
	d="
M159.101715,213.931427 
	C159.511063,219.101822 157.233215,222.794037 154.188843,226.572891 
	C148.295151,233.888443 143.158661,241.809204 137.403290,249.242950 
	C134.327057,253.216263 130.615067,256.697357 127.076218,260.719116 
	C123.368416,258.700806 119.774399,256.363953 116.144623,253.450928 
	C119.514175,248.635666 123.123238,244.542480 126.284515,240.128586 
	C134.062531,229.268646 141.634644,218.261261 149.289551,207.313156 
	C149.726868,207.516464 150.164185,207.719788 150.928207,208.323761 
	C151.401489,208.872131 151.572769,208.981018 151.768723,209.051086 
	C151.768723,209.051086 151.945770,209.022232 152.095245,209.277084 
	C152.450668,209.737671 152.687943,209.896729 152.956512,210.009079 
	C154.941162,211.237289 156.925827,212.465515 159.101715,213.931427 
z"/>
	<path fill="#0BDCAC" opacity="1.000000" stroke="none" 
	d="
M97.927155,236.057129 
	C89.373611,223.114517 91.566353,211.119934 104.165062,202.587051 
	C110.460136,198.323502 116.884071,194.250168 123.587097,190.020386 
	C125.992859,191.370331 128.061264,192.790726 130.008270,194.671387 
	C124.199837,202.847427 118.658279,210.676208 112.779953,218.243378 
	C108.039986,224.345169 102.893372,230.131073 97.927155,236.057129 
z"/>
	<path fill="#08E6B2" opacity="1.000000" stroke="none" 
	d="
M149.099457,207.063446 
	C141.634644,218.261261 134.062531,229.268646 126.284515,240.128586 
	C123.123238,244.542480 119.514175,248.635666 115.934540,253.201843 
	C112.228745,251.253387 108.697258,248.977890 105.283981,246.237915 
	C110.820663,239.121643 116.510612,232.669495 121.587555,225.766495 
	C127.666893,217.500580 133.222778,208.849686 139.005356,200.365509 
	C142.306686,202.514923 145.608017,204.664337 149.099457,207.063446 
z"/>
	<path fill="#0BE0AE" opacity="1.000000" stroke="none" 
	d="
M138.784363,200.082489 
	C133.222778,208.849686 127.666893,217.500580 121.587555,225.766495 
	C116.510612,232.669495 110.820663,239.121643 105.100075,245.948212 
	C102.887634,244.984116 100.977318,243.845261 98.881927,242.421494 
	C98.491600,240.332932 98.286362,238.529266 98.004135,236.391373 
	C102.893372,230.131073 108.039986,224.345169 112.779953,218.243378 
	C118.658279,210.676208 124.199837,202.847427 130.217178,194.946991 
	C133.219452,196.441376 135.891403,198.120438 138.784363,200.082489 
z"/>
	<path fill="#08E6B2" opacity="1.000000" stroke="none" 
	d="
M151.726898,208.880798 
	C151.572769,208.981018 151.401489,208.872131 151.165482,208.600891 
	C151.339340,208.397614 151.542343,208.475311 151.726898,208.880798 
z"/>
	<path fill="#08E6B2" opacity="1.000000" stroke="none" 
	d="
M152.863617,209.797089 
	C152.687943,209.896729 152.450668,209.737671 152.108551,209.365784 
	C152.314880,209.169876 152.581009,209.298355 152.863617,209.797089 
z"/>
	<path fill="#04F2BA" opacity="1.000000" stroke="none" 
	d="
M209.353516,154.123657 
	C209.511063,154.037170 209.682785,154.161453 209.921570,154.449799 
	C209.746094,154.621216 209.539124,154.528076 209.353516,154.123657 
z"/>
	<path fill="#01F9BF" opacity="1.000000" stroke="none" 
	d="
M170.818863,221.836304 
	C170.713226,221.873138 170.541962,221.737427 170.245239,221.498047 
	C170.398407,221.325150 170.609573,221.414963 170.818863,221.836304 
z"/>
	<path fill="#04F2BA" opacity="1.000000" stroke="none" 
	d="
M208.472809,153.226135 
	C208.641647,153.143372 208.789017,153.266266 208.973328,153.555725 
	C208.791489,153.711929 208.605179,153.615097 208.472809,153.226135 
z"/>
	<path fill="#04F2BA" opacity="1.000000" stroke="none" 
	d="
M174.655396,224.846817 
	C174.478729,224.939224 174.297302,224.800659 174.054840,224.476135 
	C174.249969,224.301086 174.468933,224.409653 174.655396,224.846817 
z"/>
</svg>